<?xml version="1.0" encoding="utf-8"?>
<svg version="1.1" id="Layer_1" xmlns="http://www.w3.org/2000/svg" xmlns:xlink="http://www.w3.org/1999/xlink" x="0px" y="0px"
	 viewBox="0 0 1224.479 1688.516" style="enable-background:new 0 0 1224.479 1688.516;" xml:space="preserve">
<g>
	<path d="M561.425,46.328c1.825-4.594,87.108-0.405,100.034,0.464c99.463,204.345-4.042,982.31-31.582,1208.129
		c16.17,0.321,32.315-0.531,48.401-2.134c83.856-215.68,200.395-542.976,188.992-774.018
		c-1.565-17.385,6.122-261.244-95.183-412.804c53.471,13.733,105.314,34.112,153.505,61.063
		c44.929,60.43,111.985,217.772,73.302,469.084c-45.482,284.874-129.344,380.794-283.905,650.72
		c9.979-2.303,19.848-5.036,29.582-8.216c-7.623,24.164-31.263,99.68-41.434,122.767c-0.498,0.143-1.493,0.43-1.991,0.573
		c-5.668,25.803-11.371,51.607-16.98,77.419c1.567,5.701,16.854,88.714,17.039,89.726c2.944,0.051,6.326-0.321,8.697,1.847
		c2.547,2.024,3.146,6.149,0.869,8.621c-2.311,2.286-5.778,1.535-8.705,1.771c-0.766,110.085,11.012,102.084-90.46,102.876
		c-65.333,1.081-50.149-22.509-51.75-103.163c-3.062,0.068-6.647,1.223-9.312-0.793c-3.712-2.657-2.547-9.591,2.067-10.485
		c2.809-0.337,5.643-0.126,8.461-0.152c18.544-101.163,16.953-86.937,15.639-94.104c-5.373-24.437-10.316-48.966-15.867-73.353
		c-9.185-8.271-47.38-102.7-51.134-125.145c-10.063-11.286-20.548-22.202-30.73-33.37
		C347.218,976.44,344.149,973.434,328.73,942.994c-69.064-122.979-202.622-528.842-42.168-798.708
		c3.135-5.115,27.67-43.415,32.121-45.137c44.369-20.455,91.615-34.18,139.603-43.003c-26.301,37.72-48.968,78.732-69.194,147.878
		c-50.665,176.404-35.36,399.827-22.041,475.663c28.42,172.697,105.998,399.997,168.165,564.115
		c18.144,4.167,36.592,6.968,55.107,8.781c-20.45-161.405-62.482-512.664-70.147-675.106c0,0-2.1-59.214-2.1-59.215
		C517.188,508.812,505.413,162.95,561.425,46.328 M565.238,1363.095c5.103,23.728,10.215,47.465,15.268,71.21
		c0.219-22.438,0.051-44.875,0.076-67.313C575.411,1365.92,570.299,1364.596,565.238,1363.095 M680.792,1367.65
		c0.193,26.871-0.264,61.037,0.506,67.625c0.798-6.593,15.239-70.877,15.47-71.894
		C691.539,1365.144,686.115,1366.224,680.792,1367.65 M584.951,1367.928c0.051,22.404-0.278,44.825,0.169,67.22
		c4.192-21.729,9.11-43.315,13.775-64.943C594.196,1369.784,589.573,1368.814,584.951,1367.928 M662.901,1370.594
		c4.682,21.712,9.27,43.442,13.977,65.145c0.236-22.446,0.034-44.901,0.101-67.339
		C672.289,1369.16,667.608,1369.927,662.901,1370.594 M602.825,1370.821c-4.985,23.045-9.92,46.107-14.863,69.161
		c4.26-0.017,8.528-0.017,12.796-0.008c0.261-5.39-0.768-10.991,0.953-16.204c3.442-9.245,18.811-9.49,22.682-0.481
		c2.261,5.255,0.953,11.135,1.274,16.677c3.205,0,6.411,0,9.625,0c0.396-5.39-0.953-11.067,0.894-16.238
		c3.846-9.279,19.342-9.026,22.826,0.43c1.51,5.095,0.43,10.552,0.692,15.799c4.682,0.017,9.355,0.025,14.036-0.008
		c-5.053-22.952-9.937-45.938-14.829-68.924C645.246,1372.743,624.291,1373.253,602.825,1370.821 M586.511,1450.484
		c-5.036,26.377-9.894,52.788-15.099,79.14c57.888-0.6,113.004-0.47,119.426-0.456c-5.221-26.217-10.181-52.484-15.42-78.692
		c-5.137,0.008-10.274-0.008-15.403,0.017c-3.27,14.844-21.742,15.097-25.086,0c-3.113-0.017-6.225-0.017-9.329,0
		c-3.617,15.964-23.098,12.918-24.766,0.16C596.06,1450.374,591.286,1450.501,586.511,1450.484z"/>
	<path d="M131.363,256.753C99.94,369.526,74.968,505.804,141.687,708.073c50.789,152.367,102.656,208.394,204.386,352.205
		c-5.166-4.759-104.635-112.178-119.038-126.098C86.501,791.045,5.538,581.025,76.399,377.934
		C86.484,335.725,108.689,289.59,131.363,256.753z"/>
	<path d="M1095.477,273.995c4.929,5.386,39.337,52.026,59.696,114.23c60.401,181.001-27.229,352.155-142.623,504.242
		c-14.296,18.908-172.275,216.476-172.374,216.583C969.626,925.481,1199.322,658.883,1095.477,273.995z"/>
</g>
</svg>
