<?xml version="1.0" encoding="utf-8"?>

<!DOCTYPE svg PUBLIC "-//W3C//DTD SVG 1.1//EN" "http://www.w3.org/Graphics/SVG/1.1/DTD/svg11.dtd">
<svg version="1.1" id="Layer_1" xmlns="http://www.w3.org/2000/svg" xmlns:xlink="http://www.w3.org/1999/xlink" x="0px" y="0px"
	 viewBox="-19.502 -15.147 1957.544 1631.889" enable-background="new -19.502 -15.147 1957.544 1631.889" xml:space="preserve">
<path d="M1506.45,13.62c6.14-2.46,12.85-2.42,19.32-3.26c19.16-1.55,38.15,2.48,56.59,7.3c9.75,3.56,19.66,6.71,29.2,10.85
	c11.13,4.71,22.59,8.55,34.01,12.48c11.35,3.9,22.81,7.62,34.66,9.68c9.98,1.64,19.79,4.28,29.9,5.14
	c6.93,0.97,13.94,0.4,20.92,0.55c11.07,0.31,22.06-1.3,33.04-2.59c4.69-0.81,9.45-1.39,14.06-2.68c4.21-0.86,8.49-1.39,12.73-2.2
	c8.73-1.52,17.75-0.8,26.17,1.94c27.45,8.53,51.07,26.82,69.21,48.8c6.33,7.97,12.75,16.18,16.2,25.88c2.01,4.31,3.94,8.7,4.7,13.44
	c1.74,5.35,0.05,11.43-3.59,15.61c-5.09,6.21-12.84,10.07-16.62,17.35c-3.39,7.24-0.11,15.04,0.93,22.43
	c1.91,9.75,4.44,19.74,2.97,29.7c-0.51,6.92-3.7,13.63-8.66,18.44c-3.16,1.8-6.48,4.68-10.36,3.73c-1.93-0.55-3.7-1.55-5.21-2.83
	c-11.01-10.41-23.71-19.2-37.81-24.88c-8.11-2.37-16.35-4.78-24.84-5.08c-5.97,0.18-12-0.46-17.92,0.5
	c-6.78-0.04-13.32,2.07-20.05,2.36c-12.07,11.19-21.68,24.84-31.49,38.03c-4.1,5.31-7.56,11.14-12.61,15.63
	c-4.45,5.62-10.05,10.31-16.4,13.63c-11.53,7.51-25.27,9.89-38.27,13.61c-2.15,19.78-6.85,39.22-11.87,58.46
	c-3.22,11.38-7.14,22.55-11.32,33.61c-2.59,6.03-4.87,12.19-6.94,18.41c-3.9,7.83-7.33,15.93-12.09,23.28
	c-5.93,9.93-10.47,20.64-16.87,30.29c-3.96,6.09-7.05,12.73-11.51,18.48c-12.1,16.99-24.88,33.49-38.12,49.6
	c-3,3.13-5.08,7-8.07,10.12c-8.13,7.93-15.41,16.67-23.46,24.67c-5.47,6.46-11.39,12.66-18.33,17.55
	c-7.33,4.25-15.52,7.25-23.96,8.14c-3.64,0.84-5.86,4-8.28,6.55c-12.81,12.49-27.78,22.7-43.88,30.49c-8.9,4.31-17.65,8.92-26.66,13
	c-3.93,1.77-7.64,4.19-11.91,5.05c-19.15,7.27-38.25,14.66-57.38,21.98c-18.4,7.39-36.85,14.77-54.38,24.08
	c-17.94,8.78-34.81,20.1-48.56,34.67c-13.36,15.43-20.38,35.19-25.08,54.77c-3.22,13.71-5.19,27.68-6.97,41.64
	c-0.73,15-2.56,29.94-2.72,44.96c-0.67,6.98-1.46,13.96-1.24,20.99c-0.01,32.69,0,65.37,0,98.05c0.19,10.58-0.15,21.13-0.67,31.69
	c6.88-0.25,13.59,1.76,20.13,3.68c9.4,3.08,16.55,10.14,23.6,16.74c3.63,3.54,6.76,7.63,8.92,12.25c2.03,4.42,4.69,8.68,5.25,13.62
	c0.7,4.92,2.34,9.9,1.23,14.9c-0.57,8.44-3.29,16.59-7.02,24.13c-2.68,5.14-7.14,8.93-11.21,12.91c-1.81,1.57-0.26,3.93-0.34,5.9
	c-0.05,15.08,1.96,30.06,3.71,45.03c0.95,13.74,4,27.19,6.25,40.75c1.51,9.3,3.9,18.42,6.4,27.5c4.36,15.1,8.69,30.29,15.27,44.61
	c2.44,4.48,3.63,9.5,6.06,13.98c3.83,7.46,7.2,15.2,11.89,22.2c4.96,7.95,9.84,15.98,15.22,23.67
	c11.51,15.02,24.37,28.94,37.99,42.06c9.59,10.5,19.98,20.27,30.19,30.17l-0.12,0.69l1,0.06l0.23,0.98l0.95-0.07l-0.09,1.23
	l1.2-0.32l-0.39,1.32l1.34-0.3l-0.26,1.25l1.3-0.26l-0.41,1.43l1.46-0.52l-0.45,1.4l1.47-0.36l-0.49,1.07
	c3.18,0.68,4.7,4.03,7.14,5.92c2.85,1.8,5.05,4.41,7.47,6.74c8.15,7.59,16.1,15.39,24.11,23.14c6.73,5.54,12.16,12.49,19,17.92
	c7.28,7.06,14.37,14.3,21.21,21.79c7.22,6.83,14.6,15.49,13.97,26.1c0.58,5.19-1.38,10.62-5.42,13.97c-3.72,2.6-8.51,2.37-12.8,3.07
	c-20.49,2.61-41.14,5.34-61.8,4.85c-12.01-0.29-24.1-0.34-35.9-2.76c-9-1.72-18.13-3.47-26.41-7.52
	c-6.89-2.86-14.54-7.8-15.42-15.89c-2.15-7.82,0.94-15.85-0.35-23.71c-0.44-2.44-2.54-3.88-4.9-3.96
	c-13.52,0.23-26.77-5.55-36.75-14.51c-4.15-8.13-8.6-16.1-12.57-24.31c-9.08-22.34-12.26-46.4-17.19-69.85
	c-5.54-22.78-13.68-44.8-20.61-67.17c-13.56-39.19-24.32-79.68-43.75-116.54c-3.71-7.23-6.95-14.7-11.54-21.43
	c-4.04-8.25-10.05-15.23-15.17-22.8c-5.6-7.33-11.67-14.4-18.88-20.18c-6.96-6.37-15.23-11.14-21.8-17.95
	c-5.21-4.72-9.35-10.9-10.54-17.92c-1.75-10.58-3.81-21.71-0.26-32.14c1.66-7.73,6.3-14.27,11.4-20.12
	c-4.48-8.58-8.25-17.5-12.39-26.23c-3.49-8.11-7.71-15.87-10.88-24.1c-5.03-12.22-9.59-24.61-14.45-36.89
	c-4.48-8.86-7.38-18.4-11.12-27.58c-9.61-24.2-18.91-49.07-34.89-69.93c-5.55-7.18-12.14-14.07-20.76-17.47
	c-5.76-2.77-13.45-6.03-19.2-1.56c-4.51,7.89-3.83,17.47-6.26,26.05c-2.14,6.21-3.44,12.68-5.14,19.02
	c-7.6,22.16-14.55,44.56-21.99,66.79c-6.68,21.08-13.96,41.99-19.6,63.39c-1.92,6.13-3.06,12.5-5.35,18.51
	c2.23,2.63,5.03,4.68,7.49,7.09c3.43,4.67,4.77,10.41,6.65,15.8c1.23,3.55,2.12,7.25,1.98,11.04c1.4,12.82,0.4,25.93-3.37,38.29
	c-2.33,12.37-12.73,20.36-21.73,28.05c-5.28,5.47-9.58,11.77-13.75,18.1c-3.55,4.61-6.72,9.49-9.51,14.59
	c-6.65,9.22-11.1,19.74-16.25,29.82c-4.1,7.85-7.14,16.18-10.82,24.22c-8.86,20.36-15.52,41.57-21.95,62.79
	c-9.18,31.8-16.32,64.2-21.09,96.96c-0.08,7.67-0.5,15.42,0.89,23.02c1.25,5.75,6.32,9.2,10.87,12.3
	c8.59,6.96,18.6,11.79,28.38,16.82c12.96,6.63,24.87,17.15,29.58,31.31c1.58,6.88,3.15,14.67-0.3,21.22
	c-4.61,4.14-10.94,5.21-16.73,6.72c-10.65,3.03-21.82,2.89-32.79,3.06c-19.31,0.33-38.83-0.88-57.52-5.99
	c-6.63-0.82-13.69-4.84-15.21-11.79c-4.74-17.53-10.05-34.92-15.49-52.25c-2.17-6.81-5.02-13.38-8.27-19.72
	c-2.62-9.08-8.48-16.81-14.17-24.19c-0.34-3.64,1.4-6.85,3.03-9.94c7.59-18.33,14.41-36.98,21.62-55.47
	c10.92-29.33,22.87-58.33,31.81-88.36c2.86-9.44,5.96-18.85,7.55-28.61c0.98-6.7,2.86-13.24,3.19-20.02
	c0.06-3.7,1.13-7.28,1.28-10.95c0.05-13.78,0.62-27.69-2.17-41.26c-2.37-10.32-5.9-20.34-7.65-30.81
	c-2.8-12.49-2.89-25.49-0.45-38.05c4.25-19.18,18.91-34.61,35.94-43.47c1.49-4.49,2.07-9.21,3.02-13.83
	c5.06-20.53,7.05-41.62,8.73-62.63c-0.08-6.93,1.03-13.86,0.11-20.77c-0.36-29.36-5.57-58.6-14.22-86.65
	c-0.31-0.35-0.93-1.04-1.24-1.39c-11.12-0.46-22.1-2.49-32.87-5.15c-10.96-2.71-22.16-5.16-32.24-10.43
	c-6.71-3.29-13.94-5.41-20.6-8.82c-5.75-2.75-10.79-6.76-16.51-9.59c-7.09-3.8-14.52-7.07-21.1-11.75
	c-10.79-7.53-21.9-14.64-33.78-20.34c-10.19-4.82-19.7-11.25-30.49-14.7c-2.92,7.03-6.16,13.92-9.05,20.96
	c-5.76,12.15-12.29,23.93-17.72,36.23c-11.17,22.92-24.1,44.92-35.23,67.87c-9.05,16.76-17.82,33.73-28.1,49.78
	c-7.05,16.2-17.19,30.79-25.82,46.16c-4.11,6.99-7.84,14.2-11.71,21.32c-5.08,12.85-13.94,23.64-20.36,35.78
	c-2.44,4.64-4.28,9.69-7.93,13.56c-2.15,4.27-3.53,9.23-2.79,14.04c2.12,10.38,8.35,19.19,12.39,28.84
	c2.79,9.94,3.87,20.68,0.85,30.72c-3.49,9.67-9,18.66-16.38,25.84c-4.63,4.7-9.64,9.21-12.86,15.05c-2,3.84-2.26,8.25-1.79,12.48
	c1.18,6.56-0.14,13.27,1.02,19.84c0.66,10.13,3.32,19.95,5.64,29.79c2.46,11.83,4.52,23.78,8.41,35.25
	c6.59,19.86,12.26,39.98,18.11,60.06c3.22,10.67,6.01,21.48,9.92,31.92c2.88,8.83,6.82,17.29,9.38,26.23
	c3.49,11.72,7.87,23.22,13.46,34.12c4.61,8.88,8.22,18.24,12.74,27.16c3.81,8.17,8.99,15.58,13.72,23.22
	c9.96,13.2,21.43,25.28,34.17,35.83c7.84,6.46,17.2,10.75,25.09,17.17c16.67,8.52,33.06,17.61,49.85,25.93
	c9.68,3.9,18.61,9.67,26.22,16.81c5.18,5.95,8.65,13.64,9.18,21.55c0.77,10.16-8.33,20.46-18.75,19.59
	c-28.99-0.09-57.98,0.08-86.96-0.09c-10.96-1.58-22.16-1.8-32.91-4.54c-2.07-0.31-4.17-0.43-6.14-1.12
	c-10.06-2.2-19.69-5.98-29.3-9.59c-3.24-1.28-6.58-2.45-9.48-4.41c-3.72-1.94-8.12-3.99-9.71-8.17c-2.62-9.82-2.28-20.05-3.24-30.07
	c-14.93-10.65-30.63-21.13-41.19-36.48c-1.79-3.02-2.74-6.45-4.71-9.36c-2.56-3.59-2.47-8.16-3.7-12.22
	c-2.77-9.31-3.25-19.09-5.53-28.49c-4.6-23.52-10.56-46.74-16.44-69.96c-5.78-22.55-13.4-44.55-20.03-66.84
	c-6.06-17.54-11.64-35.23-17.81-52.73c-7.04-20.86-13.66-41.85-20.61-62.74c-3.89-11.86-9.85-23.54-19.53-31.65
	c-3.28-3.29-6.61-6.53-9.69-10c-2.84-3.15-6.24-5.87-8.41-9.57c-2.4-4.84-6.49-8.6-8.54-13.64c-3.95-6.29-6.59-13.26-8.13-20.5
	c-0.29-7.25-0.48-14.71,2.01-21.64c6.43-19.98,20.49-36.13,34.06-51.65c6.07-7.17,12.81-14.21,16.08-23.19
	c2.55-5.49,2.54-11.71,4.7-17.32c5.14-15,10.42-30.05,12.94-45.77c3.11-14.88,5.08-29.96,8.3-44.81c3-17.18,4.29-34.6,5.51-51.94
	c-0.48-5.72,0.87-11.35,0.62-17.05c-0.12-6,0.34-12.03-0.57-17.99c0.15-14.11-2.51-28.05-2.7-42.14
	c-0.21-5.65-4.16-10.07-7.86-13.92c-4.95-4.66-11.22-7.97-17.98-8.96c-14.25-1.44-29.1,6.95-34.84,20.15
	c-2.71,5.59-5.6,11.09-8.33,16.67c-6.25,12.34-9.89,25.9-17.03,37.8c-1.72,4.88-5.04,10.12-2.98,15.4
	c1.72,5.09,6.23,8.61,10.46,11.62c6.06,4.69,12.2,9.27,18.37,13.82c4.88,3.68,9.58,8.2,11.44,14.19c1.01,4.62-2.96,8.3-2.55,12.89
	c-4.22,9.92-10.32,19.48-19.35,25.67c-5.9,6.43-12.16,12.57-17.85,19.2c-6.39,8.67-7.87,19.86-6.9,30.35
	c1.33,7.44,3.93,14.56,6.34,21.71c0.33,0.41,0.98,1.24,1.31,1.66c-0.33-0.01-0.97-0.02-1.3-0.03c-6.95-7.42-15.67-12.93-22.84-20.13
	c-5.99-5.95-12.07-11.81-17.91-17.91c-5.39-6.07-10.04-12.75-14.56-19.47c-2.86-5.22-5.47-10.59-8.01-15.98
	c-1.7-5.47-3.41-11-4.03-16.72c-1.2-6.97-0.56-14.05-0.62-21.07c1.01-2.73,1.65-5.57,2.64-8.29c5.9-12.72,16.84-21.94,27.58-30.5
	c5.76-4.09,11.76-8.14,15.95-13.95c3.66-5.24,7.12-10.69,9.45-16.68c3.21-10.65,9.28-21.12,7.47-32.64
	c-0.61-3.71-5.19-2.41-7.8-2.28c-7.2,1.76-12.34,7.57-18.52,11.28c-17.37,10.51-34.85,21.13-50.08,34.65
	c-5.85,5.2-12.1,9.95-17.6,15.54c-11.12,10.62-19.53,23.74-26.3,37.46c-3.82,6.26-6.5,13.1-9.69,19.68
	c-1.16,1.99,0.64,3.79,1.61,5.4c5.27,7.55,6.16,16.97,9.13,25.47c0.92,2.69,2.85,5.11,2.88,8.06c-0.05,6.54,0.48,13.17-1.05,19.6
	c-1.21,5.11-2.31,10.34-4.82,15.02c-3.61,6.26-6.91,12.84-12.13,17.97c-8.06,8.46-17.05,16.58-27.96,21.09
	c-6.55,1.11-9.62,8.35-16.14,9.59c0.1,3.24,0.09,6.51-0.52,9.72c-3.8,29.65-7.71,59.37-8.49,89.24c-0.92,5.86-0.14,11.84-1.04,17.72
	c-0.05,24.97-0.94,50.11,2.89,74.89c0.42,9.45,2.26,18.76,3.82,28.09c2.71,13.96,5.63,27.89,9.54,41.58
	c5.14,21.45,12.77,42.3,22.89,61.91c5.15,12.25,13.79,22.64,23.03,32.03c6.41,6.26,13.78,11.35,20.57,17.16
	c7.62,6.57,16.89,10.66,25.75,15.24c7.1,3.71,14.44,6.93,21.83,10.03c0.36,6.15,5.02,10.57,8.09,15.51
	c6.93,10.32,13.51,21.8,13.36,34.63c-0.49,7.82-0.65,16.23-5.23,22.95c-1.47,1.89-2.98,4.12-5.43,4.79l0.08,0.84l-0.75-0.04
	c-0.82,0.68-1.71,1.27-2.67,1.75c-12.82-3.93-25.97-6.82-38.9-10.44c-11.74-2.77-22.86-7.63-34.58-10.47
	c-19.23-4.95-37.51-12.98-56.9-17.38c-5.54-1.09-10.72-3.41-16.27-4.44c-1.47-0.28-2.72-1.23-3.34-2.56
	c-1.76-3.48-4.7-6.22-6.17-9.84c-3.23-7.41-5.65-15.21-6.5-23.27c-1.46-10.11-3.39-21.06-10.79-28.68
	c-5.37-6.86-11.41-13.21-17.81-19.1c-6.65-7.99-6.46-18.82-8.88-28.42c-4.39-19.73-8.59-39.54-10.8-59.64
	c-2.51-18.03-4.08-36.19-5.07-54.35c-0.9-4.38,0.11-8.88-0.84-13.24c-0.62-5.14,0.28-10.36-0.54-15.48
	c-0.81-5.63,0.22-11.35-0.6-16.97c-0.75-4.7-0.04-9.47-0.41-14.18c-1.12-6.57-0.31-13.26-0.55-19.88
	c0.28-13.29-0.61-26.63,0.49-39.87c0.28-17.03,0.09-34.06,0.14-51.09c-0.29-9.02,0.68-18,0.5-27.01c0.04-8.03-0.02-16.04,0.09-24.06
	c-4.34-6.46-9.34-12.47-13.1-19.3c-4.97-6.07-9.5-12.89-10.74-20.79c-2.18-13.81-0.15-27.9,3.02-41.4c2.4-7.63,4.5-15.4,8.27-22.5
	c10.82-25.28,31.07-45.42,54-60.06c6.06-4.58,10.57-10.81,15.64-16.4c14.12-16.37,27.34-33.5,39.96-51.04
	c10.96-15.35,22.54-30.29,32.56-46.29c12.32-18.64,20.79-39.4,31.33-59.03c2-4.34,3.24-8.99,4.26-13.65
	c1.35-5.59,4.35-10.62,5.67-16.21c6.99-20.22,10.04-41.55,11.92-62.78c1.31-13.96,2.91-27.9,4.34-41.84
	c1.32-6.9-0.34-14.06,0.93-20.99c0.35-2.52-0.01-5.09,0.51-7.58c4.94-29.61,6.59-60.06,16.6-88.58
	c4.19-16.16,11.33-31.32,18.92-46.12c6.58-11.68,14.3-22.7,22.98-32.92c5.92-7.74,12.1-15.28,18.27-22.83
	c12.86-13.37,26.42-26.03,40.34-38.29c7.13-5.25,13.91-11,21.27-15.93c5.42-3.16,10.24-7.23,15.65-10.42
	c13.03-7.74,26.07-15.53,39.88-21.83c10.24-4.47,20.73-8.38,31.47-11.48c21.64-5.5,42.66-13.21,63.08-22.21
	c8.99-4.22,18.87-6.84,26.82-13.01c13.04-8.48,25.12-18.28,37.41-27.78c22.42-17.93,45.02-35.65,67.84-53.08
	c9.4-6.53,18.3-13.75,27.94-19.94c3.11-1.93,5.81-4.44,8.92-6.38c12.8-6.4,25.08-13.79,37.99-19.98c4.08-2.21,8.29-4.14,12.77-5.39
	c8.77-3.99,18.12-6.4,27.27-9.35c17.95-3.99,36.08-8.55,54.62-8.06c8.29-0.62,16.59-0.6,24.91-0.58
	c14.58,0.47,29.44,4.88,40.69,14.45c5.94,5.78,11.96,11.59,16.55,18.55c4.74,5.91,8.95,12.22,13.79,18.05
	c6.68,9.88,13.64,19.6,21.35,28.71c17.32,18.99,33.44,39.09,51.47,57.43c3.2,4.42,7.71,7.65,10.95,12.04
	c8.8,8.96,16.1,19.22,24.55,28.5c22.15,25.62,46.07,49.59,67.4,75.94c24.69,28.57,49.51,57.03,73.39,86.3
	c6.09,8.15,11.88,16.61,19.11,23.83c7.47,5.9,16.37,10.16,25.82,11.6c19.67,2.47,39.56-0.86,58.57-5.93
	c41.56-10.49,79.24-36.02,103.95-71.06c12.08-15.08,21.21-32.3,28.7-50.05c11.56-27.78,15.97-57.96,27.49-85.78
	c4.72-10.25,8.96-20.7,12.95-31.26c3.91-11.06,8.68-21.91,10.41-33.6c-4.34,0.64-8.67,1.37-13.05,1.11
	c-7.51-0.27-15.18,0.78-22.51-1.24c-5.77-2.1-11.75-4.4-16.13-8.88c-2.9-5.14-1.21-11.19-0.45-16.66c1.6-8.44,4.57-17,10.62-23.32
	c1.75-1.36,3.78-2.41,5.96-2.93c10.81-0.9,21.67-1.15,32.52-0.73c3.1,0.12,6.26,1.63,9.32,0.58c-0.2-7.44,3.45-14.34,5.85-21.23
	c6.34-8.92,12.34-18.22,20.13-25.98C1486.75,24.13,1495.71,16.91,1506.45,13.62z"/>
</svg>
