<?xml version="1.0" encoding="UTF-8"?>
<!DOCTYPE svg PUBLIC "-//W3C//DTD SVG 1.1//EN" "http://www.w3.org/Graphics/SVG/1.1/DTD/svg11.dtd">
<svg xmlns="http://www.w3.org/2000/svg" version="1.1" width="870px" height="924px" style="shape-rendering:geometricPrecision; text-rendering:geometricPrecision; image-rendering:optimizeQuality; fill-rule:evenodd; clip-rule:evenodd" xmlns:xlink="http://www.w3.org/1999/xlink">
<g><path style="opacity:1" fill="#fefefe" d="M -0.5,-0.5 C 289.5,-0.5 579.5,-0.5 869.5,-0.5C 869.5,307.5 869.5,615.5 869.5,923.5C 579.5,923.5 289.5,923.5 -0.5,923.5C -0.5,615.5 -0.5,307.5 -0.5,-0.5 Z"/></g>
<g><path style="opacity:1" fill="#bcbcbc" d="M 691.5,11.5 C 690.322,12.9986 688.655,13.9986 686.5,14.5C 686.624,15.1067 686.957,15.44 687.5,15.5C 687.5,16.8333 687.5,18.1667 687.5,19.5C 686.5,19.5 685.5,19.5 684.5,19.5C 684.347,16.1989 683.347,13.1989 681.5,10.5C 682.497,6.98596 684.83,5.81929 688.5,7C 689.053,8.87781 690.053,10.3778 691.5,11.5 Z"/></g>
<g><path style="opacity:1" fill="#c1c1c1" d="M 703.5,9.5 C 706.187,9.33591 708.854,9.50258 711.5,10C 712.308,10.3076 712.975,10.8076 713.5,11.5C 709.959,12.2 706.459,12.8666 703,13.5C 702.421,12.0715 702.588,10.7382 703.5,9.5 Z"/></g>
<g><path style="opacity:1" fill="#d8d8d8" d="M 691.5,11.5 C 692.478,11.811 693.145,12.4777 693.5,13.5C 691.369,14.1687 689.369,14.8354 687.5,15.5C 686.957,15.44 686.624,15.1067 686.5,14.5C 688.655,13.9986 690.322,12.9986 691.5,11.5 Z"/></g>
<g><path style="opacity:1" fill="#bbbbbb" d="M 658.5,20.5 C 660.861,20.6741 663.194,21.0074 665.5,21.5C 665.719,22.675 665.386,23.675 664.5,24.5C 658.853,24.873 653.52,26.373 648.5,29C 647.939,30.676 646.939,32.0094 645.5,33C 639.16,33.6007 632.826,34.2674 626.5,35C 626.076,38.0433 624.41,39.8766 621.5,40.5C 618.067,39.5248 617.734,37.8581 620.5,35.5C 618.715,31.5207 619.715,28.5207 623.5,26.5C 622.5,25.8333 621.5,25.1667 620.5,24.5C 621,24.1667 621.5,23.8333 622,23.5C 631.817,24.4078 641.65,24.2412 651.5,23C 654.104,22.6097 656.438,21.7763 658.5,20.5 Z"/></g>
<g><path style="opacity:1" fill="#bababa" d="M 527.5,33.5 C 530.686,33.8496 533.353,35.1829 535.5,37.5C 550.883,38.4967 566.217,37.8301 581.5,35.5C 584.533,35.669 587.533,36.0023 590.5,36.5C 590.5,37.8333 590.5,39.1667 590.5,40.5C 585.489,40.3341 580.489,40.5007 575.5,41C 565.858,45.7818 555.691,47.2818 545,45.5C 540.333,48.0531 535.5,50.3864 530.5,52.5C 517.061,48.1751 516.061,41.8418 527.5,33.5 Z"/></g>
<g><path style="opacity:1" fill="#b9b9b9" d="M 828.5,106.5 C 829.117,106.389 829.617,106.056 830,105.5C 830.21,107.058 830.71,108.391 831.5,109.5C 832.767,113.835 832.767,118.168 831.5,122.5C 832.605,123.892 833.939,125.059 835.5,126C 833.112,126.303 830.945,127.137 829,128.5C 827.35,133.395 826.683,138.395 827,143.5C 827.689,144.357 828.522,145.023 829.5,145.5C 829.838,156.666 831.171,167.666 833.5,178.5C 831.842,185.467 830.342,192.467 829,199.5C 823.014,210.135 817.014,220.801 811,231.5C 810.424,233.377 810.591,235.211 811.5,237C 809.88,239.738 808.38,242.572 807,245.5C 806.648,263.845 805.981,282.179 805,300.5C 803.938,301.899 802.605,302.899 801,303.5C 795.271,301.097 789.438,300.431 783.5,301.5C 780.549,301.404 777.882,300.571 775.5,299C 767.774,298.8 760.107,298.634 752.5,298.5C 749.479,299.276 746.479,300.109 743.5,301C 742.781,303.556 741.114,304.723 738.5,304.5C 739.129,306.465 739.796,308.465 740.5,310.5C 739.668,313.482 739.501,316.482 740,319.5C 743.115,321.647 745.948,324.147 748.5,327C 747.892,327.87 747.059,328.37 746,328.5C 744.234,327.767 742.401,327.433 740.5,327.5C 740.67,328.822 740.337,329.989 739.5,331C 737.005,331.157 734.672,331.324 732.5,331.5C 734,333.833 735.5,336.167 737,338.5C 737,343.167 737,347.833 737,352.5C 745.967,359.124 756.133,361.457 767.5,359.5C 767.5,360.5 767.5,361.5 767.5,362.5C 771.577,363.37 775.577,364.537 779.5,366C 782.85,366.93 785.683,366.097 788,363.5C 788.355,358.745 790.855,356.412 795.5,356.5C 796.01,360.56 796.844,364.56 798,368.5C 800.574,370.645 802.407,373.312 803.5,376.5C 805.045,377.452 806.712,377.785 808.5,377.5C 809.79,381.753 810.79,386.087 811.5,390.5C 809.391,395.593 807.891,400.926 807,406.5C 803.799,408.703 802.299,411.87 802.5,416C 803.194,418.553 804.027,421.053 805,423.5C 807.013,425.532 808.513,427.866 809.5,430.5C 808.695,432.472 807.361,433.972 805.5,435C 801.806,435.278 798.139,435.278 794.5,435C 792.73,440.062 791.064,445.229 789.5,450.5C 786.421,450.26 783.421,450.593 780.5,451.5C 778.833,453.833 776.833,455.833 774.5,457.5C 774.137,462.681 772.137,467.015 768.5,470.5C 762.833,471.167 757.167,471.833 751.5,472.5C 750.617,476.276 749.617,479.943 748.5,483.5C 745.104,485.296 741.437,486.296 737.5,486.5C 736.841,489.455 736.508,492.455 736.5,495.5C 738.857,495.337 741.19,495.503 743.5,496C 745.597,497.61 747.93,498.777 750.5,499.5C 753.877,504.204 758.211,507.871 763.5,510.5C 764.192,513.163 765.192,515.663 766.5,518C 764.61,519.904 762.276,521.07 759.5,521.5C 759.006,525.384 758.006,529.051 756.5,532.5C 752.763,536.869 748.43,540.535 743.5,543.5C 741.493,541.992 739.826,540.158 738.5,538C 734.291,536.811 730.624,537.644 727.5,540.5C 720.72,542.98 714.053,545.647 707.5,548.5C 704.069,550.426 701.069,552.926 698.5,556C 697,556.5 695.5,557 694,557.5C 688.592,556.403 683.592,554.403 679,551.5C 678.51,552.793 678.343,554.127 678.5,555.5C 679.5,555.5 680.5,555.5 681.5,555.5C 681.5,558.833 681.5,562.167 681.5,565.5C 678.545,564.841 675.545,564.508 672.5,564.5C 672.714,562.856 672.38,561.356 671.5,560C 668.207,558.392 664.873,558.225 661.5,559.5C 660.232,557.696 659.565,555.696 659.5,553.5C 653.195,553.24 646.862,553.073 640.5,553C 639,551.5 637.5,550 636,548.5C 636.296,544.787 634.296,542.787 630,542.5C 627.488,544.06 624.988,544.726 622.5,544.5C 627.246,545.656 629.246,548.656 628.5,553.5C 629.5,553.5 630.5,553.5 631.5,553.5C 632.403,556.391 632.736,559.391 632.5,562.5C 625.193,561.333 618.193,559.333 611.5,556.5C 611.079,558.91 609.746,560.743 607.5,562C 602.162,564.545 596.495,566.045 590.5,566.5C 589.282,567.803 589.615,568.803 591.5,569.5C 590.833,570.167 590.167,570.833 589.5,571.5C 594.033,573.364 596.699,576.697 597.5,581.5C 598.427,583.957 598.427,586.623 597.5,589.5C 593.808,589.324 591.808,590.991 591.5,594.5C 596.757,593.521 601.09,595.021 604.5,599C 605.448,599.483 606.448,599.649 607.5,599.5C 607.421,600.93 607.754,602.264 608.5,603.5C 607.675,604.386 606.675,604.719 605.5,604.5C 605.247,606.827 605.914,608.827 607.5,610.5C 606.515,612.098 606.349,613.765 607,615.5C 612.98,617.075 618.48,619.575 623.5,623C 622.862,626.402 621.695,629.569 620,632.5C 618.589,637.667 620.422,641.001 625.5,642.5C 627.65,646.347 630.484,649.68 634,652.5C 635.082,657.918 638.082,661.918 643,664.5C 644.016,668.041 644.183,671.541 643.5,675C 645.186,677.208 646.186,679.708 646.5,682.5C 645.062,689.78 644.062,697.113 643.5,704.5C 644.873,704.343 646.207,704.51 647.5,705C 646.106,705.956 645.439,707.289 645.5,709C 646.796,711.734 647.296,714.567 647,717.5C 644.164,722.346 640.164,725.679 635,727.5C 634.184,731.33 632.851,734.996 631,738.5C 627.054,744.942 622.554,750.942 617.5,756.5C 618.156,758.453 618.489,760.453 618.5,762.5C 617.448,762.351 616.448,762.517 615.5,763C 616.194,767.468 616.86,771.968 617.5,776.5C 621.209,778.215 624.209,777.382 626.5,774C 629.39,772.971 632.224,771.805 635,770.5C 637.526,771.128 638.359,772.461 637.5,774.5C 635.954,775.684 634.287,776.684 632.5,777.5C 633.682,779.761 635.349,781.595 637.5,783C 636.027,783.71 635.36,784.876 635.5,786.5C 630.139,786.899 625.139,788.399 620.5,791C 620.384,795.613 618.051,797.446 613.5,796.5C 613.607,798.903 612.607,800.736 610.5,802C 601.519,804.65 596.519,810.65 595.5,820C 594.681,821.319 593.681,822.485 592.5,823.5C 591.5,822.167 590.5,822.167 589.5,823.5C 588.234,819.956 586.234,816.956 583.5,814.5C 581.218,816.546 578.551,817.546 575.5,817.5C 576.794,821.015 577.628,824.682 578,828.5C 580.105,831.064 581.938,833.731 583.5,836.5C 583.21,838.044 582.544,839.377 581.5,840.5C 581.833,840.833 582.167,841.167 582.5,841.5C 585.432,840.301 588.432,839.301 591.5,838.5C 593.055,838.722 594.389,839.389 595.5,840.5C 599.429,839.567 603.429,839.234 607.5,839.5C 606.908,842.127 606.575,844.794 606.5,847.5C 605.325,847.281 604.325,847.614 603.5,848.5C 604.827,850.311 605.827,852.311 606.5,854.5C 610.889,856.545 615.389,858.212 620,859.5C 620.667,860.833 620.667,862.167 620,863.5C 616.639,867.204 616.806,870.704 620.5,874C 619.7,877.372 618.367,880.539 616.5,883.5C 612.883,882.321 609.383,882.654 606,884.5C 606.925,887.381 607.591,890.381 608,893.5C 606.312,895.188 604.645,896.855 603,898.5C 601.715,898.05 600.548,897.383 599.5,896.5C 598.571,897.689 598.238,899.022 598.5,900.5C 599.5,900.5 600.5,900.5 601.5,900.5C 601.281,901.675 601.614,902.675 602.5,903.5C 604.413,904.373 606.247,905.373 608,906.5C 608.018,908.797 607.851,911.131 607.5,913.5C 605.046,913.321 602.879,913.987 601,915.5C 596.424,911.909 591.591,911.575 586.5,914.5C 585.558,914.392 584.725,914.059 584,913.5C 583.692,914.308 583.192,914.975 582.5,915.5C 580.309,914.119 578.976,912.119 578.5,909.5C 575.603,910.43 573.27,912.097 571.5,914.5C 570.749,913.624 570.249,912.624 570,911.5C 568.874,912.944 567.374,913.61 565.5,913.5C 560.337,912.611 557.671,909.611 557.5,904.5C 555.61,904.297 554.11,904.963 553,906.5C 551.456,908.468 550.289,910.635 549.5,913C 545.522,912.287 541.522,912.453 537.5,913.5C 538.428,910.87 539.428,908.204 540.5,905.5C 539.29,902.807 539.29,900.141 540.5,897.5C 531.237,894.616 527.404,888.283 529,878.5C 531.048,874.733 533.882,871.733 537.5,869.5C 537.583,864.14 540.25,862.14 545.5,863.5C 546.079,858.774 547.412,854.441 549.5,850.5C 552.957,850.333 553.29,849.333 550.5,847.5C 548.821,849.104 546.821,849.771 544.5,849.5C 545.401,844.022 548.068,839.689 552.5,836.5C 553.227,832.678 554.227,829.011 555.5,825.5C 554.5,825.5 553.5,825.5 552.5,825.5C 552.889,822.054 553.722,818.721 555,815.5C 556.699,814.594 558.533,814.261 560.5,814.5C 559.454,812.118 559.454,809.785 560.5,807.5C 560.5,806.167 560.5,804.833 560.5,803.5C 561.5,803.5 562.5,803.5 563.5,803.5C 565.565,804.826 566.898,804.159 567.5,801.5C 565.5,800.167 563.5,798.833 561.5,797.5C 563.297,796.305 564.297,794.638 564.5,792.5C 567.518,792.2 569.518,790.533 570.5,787.5C 568.441,786.049 567.441,784.049 567.5,781.5C 563.595,782.582 559.929,784.249 556.5,786.5C 554.941,782.989 554.274,779.489 554.5,776C 552.645,775.578 550.811,775.078 549,774.5C 542.881,775.438 536.714,775.772 530.5,775.5C 530.5,773.833 530.5,772.167 530.5,770.5C 524.012,768.34 517.679,766.007 511.5,763.5C 510.911,758.519 510.411,753.519 510,748.5C 506.308,746.308 503.474,743.308 501.5,739.5C 500.554,739.013 499.554,738.68 498.5,738.5C 492.459,741.692 486.959,745.692 482,750.5C 478.289,748.42 474.289,747.086 470,746.5C 468.286,747.076 467.119,748.243 466.5,750C 459.17,750.168 451.837,750.001 444.5,749.5C 445.164,745.846 445.831,742.18 446.5,738.5C 445.251,735.414 443.084,733.08 440,731.5C 435.256,734.057 430.423,734.723 425.5,733.5C 426.089,729.029 425.423,725.029 423.5,721.5C 420.586,716.578 417.253,711.911 413.5,707.5C 415.309,703.383 416.976,699.216 418.5,695C 417.475,691.119 416.308,687.285 415,683.5C 412.2,682.875 409.366,682.208 406.5,681.5C 405.38,679.404 403.88,679.07 402,680.5C 400.017,683.068 400.183,685.401 402.5,687.5C 400.056,691.405 396.723,694.405 392.5,696.5C 389.801,699.4 387.467,702.567 385.5,706C 383.975,707.009 382.308,707.509 380.5,707.5C 379.817,700.499 376.484,698.832 370.5,702.5C 366.257,700 361.924,700 357.5,702.5C 350.839,700.658 350.006,697.658 355,693.5C 357.497,694.908 359.997,696.241 362.5,697.5C 362.71,694.614 362.877,691.614 363,688.5C 364.149,685.982 364.982,683.316 365.5,680.5C 362.758,678.823 360.424,676.657 358.5,674C 356.485,673.576 354.651,672.742 353,671.5C 350.165,673.842 347.332,676.176 344.5,678.5C 342.075,681.68 339.741,684.846 337.5,688C 335.975,689.009 334.308,689.509 332.5,689.5C 334.161,696.673 331.494,699.173 324.5,697C 318.054,693.518 311.721,693.684 305.5,697.5C 304.649,694.541 303.982,691.541 303.5,688.5C 304.795,685.284 305.462,681.951 305.5,678.5C 295.226,679.237 285.56,682.237 276.5,687.5C 276.167,687.833 275.833,688.167 275.5,688.5C 277.223,690.868 277.89,693.534 277.5,696.5C 276.325,696.281 275.325,696.614 274.5,697.5C 276.375,701.878 278.875,705.878 282,709.5C 283.128,711.345 283.628,713.345 283.5,715.5C 281.217,715.608 279.217,716.441 277.5,718C 273.219,718.21 269.052,718.377 265,718.5C 264.689,716.444 264.189,714.444 263.5,712.5C 257.184,711.553 250.85,711.553 244.5,712.5C 244.663,710.143 244.497,707.81 244,705.5C 241.381,703.968 238.547,702.968 235.5,702.5C 232.434,703.8 229.267,704.8 226,705.5C 219.211,703.687 212.711,701.187 206.5,698C 205.62,696.644 205.286,695.144 205.5,693.5C 202.537,692.235 199.537,690.902 196.5,689.5C 195.557,686.891 193.89,684.891 191.5,683.5C 189.063,684.926 186.563,686.259 184,687.5C 183.586,687.043 183.086,686.709 182.5,686.5C 180.984,692.574 178.984,698.408 176.5,704C 174.674,704.292 172.841,704.125 171,703.5C 168.092,705.198 164.926,706.198 161.5,706.5C 160.167,706.333 158.833,706.167 157.5,706C 154.979,703.509 152.146,701.342 149,699.5C 146.129,699.788 143.296,699.288 140.5,698C 139.594,695.553 138.761,693.053 138,690.5C 135.722,689.281 133.555,687.948 131.5,686.5C 131.421,685.07 131.754,683.736 132.5,682.5C 130.796,681.177 129.463,681.51 128.5,683.5C 128.709,684.086 129.043,684.586 129.5,685C 127.618,685.198 125.952,685.698 124.5,686.5C 123.688,687.993 122.355,688.66 120.5,688.5C 116.533,688.342 112.533,688.008 108.5,687.5C 102.667,683.517 98.5004,678.184 96,671.5C 91.3571,668.18 87.0238,664.513 83,660.5C 82.3333,658.5 82.3333,656.5 83,654.5C 89.9899,648.837 97.4899,644.004 105.5,640C 108.408,639.007 111.408,638.507 114.5,638.5C 120.379,640.29 126.045,639.79 131.5,637C 132.305,635.887 132.972,634.721 133.5,633.5C 134.434,634.568 134.768,635.901 134.5,637.5C 135.833,637.5 137.167,637.5 138.5,637.5C 139.641,638.339 140.974,639.006 142.5,639.5C 147.591,638.269 152.591,636.935 157.5,635.5C 161.879,635.493 166.212,635.993 170.5,637C 175.095,641.284 176.762,646.451 175.5,652.5C 174.127,652.343 172.793,652.51 171.5,653C 170.221,654.646 168.555,655.813 166.5,656.5C 167.887,656.807 169.554,656.807 171.5,656.5C 175.36,655.356 179.36,654.689 183.5,654.5C 183.5,656.5 183.5,658.5 183.5,660.5C 185.262,660.643 186.929,660.309 188.5,659.5C 192.24,661.691 196.24,663.191 200.5,664C 202.403,666.405 204.736,668.239 207.5,669.5C 208.865,672.687 209.699,676.02 210,679.5C 212.326,682.068 214.493,684.735 216.5,687.5C 219.383,689.352 222.383,691.019 225.5,692.5C 230.492,689.371 235.825,688.704 241.5,690.5C 240.823,685.199 240.323,679.866 240,674.5C 237.579,673.039 235.079,671.706 232.5,670.5C 231.534,668.604 231.201,666.604 231.5,664.5C 225.176,663.975 218.842,663.475 212.5,663C 209.437,661.934 207.937,659.767 208,656.5C 204.964,654.964 202.797,652.631 201.5,649.5C 199.709,647.54 197.543,646.207 195,645.5C 194.257,643.559 194.424,641.726 195.5,640C 200.578,638.912 205.245,636.912 209.5,634C 214.618,633.32 218.952,634.82 222.5,638.5C 225.632,637.022 228.965,636.022 232.5,635.5C 228.893,634.511 225.226,634.177 221.5,634.5C 221.221,631.4 219.888,628.9 217.5,627C 219.201,625.14 220.201,622.973 220.5,620.5C 222.216,620.629 223.883,620.962 225.5,621.5C 227.05,622.441 228.716,623.107 230.5,623.5C 232.09,625.821 234.423,626.821 237.5,626.5C 241.577,626.735 245.577,627.402 249.5,628.5C 253.935,624.882 258.935,623.549 264.5,624.5C 271.215,622.451 275.549,618.118 277.5,611.5C 279.153,611.34 280.486,610.674 281.5,609.5C 283.628,608.371 285.961,608.204 288.5,609C 290.933,611.133 293.767,612.3 297,612.5C 307.901,612.073 317.735,608.906 326.5,603C 327.711,602.107 327.711,601.274 326.5,600.5C 319.473,603.12 312.307,605.453 305,607.5C 302.225,607.186 299.725,606.186 297.5,604.5C 288.609,603.967 280.442,601.3 273,596.5C 268.619,598.194 264.119,598.694 259.5,598C 256.662,595.748 253.662,593.748 250.5,592C 249.226,591.023 249.226,590.189 250.5,589.5C 254.054,589.15 257.388,589.816 260.5,591.5C 260.833,591.167 261.167,590.833 261.5,590.5C 258.601,588.882 255.601,587.549 252.5,586.5C 250.418,586.528 248.584,585.861 247,584.5C 245.899,581.133 244.399,577.966 242.5,575C 237.317,574.6 233.317,572.267 230.5,568C 228.144,567.845 225.811,567.845 223.5,568C 219.659,566.165 216.325,563.665 213.5,560.5C 212.328,560.919 211.328,561.585 210.5,562.5C 209.893,562.376 209.56,562.043 209.5,561.5C 211.333,559.504 211.833,557.171 211,554.5C 208.704,551.403 206.537,548.237 204.5,545C 206.019,541.349 207.685,537.849 209.5,534.5C 206.333,534.4 203.333,535.067 200.5,536.5C 198.775,535.985 197.108,535.318 195.5,534.5C 197.667,531.5 199.833,528.5 202,525.5C 202.345,523.323 201.845,521.323 200.5,519.5C 201.977,517.361 202.977,515.028 203.5,512.5C 205.954,512.679 208.121,512.013 210,510.5C 213.108,511.193 216.108,512.193 219,513.5C 224.115,511.388 227.448,507.721 229,502.5C 237.837,493.845 245.67,484.512 252.5,474.5C 253.675,474.719 254.675,474.386 255.5,473.5C 262.508,465.984 269.008,457.984 275,449.5C 281.643,437.848 288.31,426.181 295,414.5C 298.566,404.461 302.899,394.794 308,385.5C 309.536,379.062 311.369,372.729 313.5,366.5C 312.691,364.929 312.357,363.262 312.5,361.5C 315.696,361.101 318.696,360.101 321.5,358.5C 319.548,357.897 317.548,358.23 315.5,359.5C 314.702,359.043 314.369,358.376 314.5,357.5C 316.005,353.481 317.838,349.481 320,345.5C 323.904,321.933 326.904,298.266 329,274.5C 332.669,262.803 336.336,251.137 340,239.5C 342.518,227.26 344.518,214.927 346,202.5C 346.956,201.421 347.789,200.255 348.5,199C 351.817,198.502 355.15,198.335 358.5,198.5C 358.281,199.675 358.614,200.675 359.5,201.5C 360.107,201.376 360.44,201.043 360.5,200.5C 361.117,200.389 361.617,200.056 362,199.5C 362.49,200.793 362.657,202.127 362.5,203.5C 360.352,210.069 362.352,215.236 368.5,219C 371.871,220.03 375.038,221.53 378,223.5C 381.823,221.35 385.657,219.183 389.5,217C 391.169,212.161 394.502,209.328 399.5,208.5C 402.481,209.826 405.481,209.826 408.5,208.5C 410.833,208.833 411.167,209.833 409.5,211.5C 409.855,212.522 410.522,213.189 411.5,213.5C 415.666,221.473 419.832,229.473 424,237.5C 423.46,244.321 422.627,251.154 421.5,258C 422.085,260.134 423.418,261.634 425.5,262.5C 424.355,263.891 424.355,265.224 425.5,266.5C 427.443,268.957 429.943,270.29 433,270.5C 435.712,268.966 438.546,267.632 441.5,266.5C 447.181,266.826 452.514,268.159 457.5,270.5C 457.022,274.929 457.688,279.096 459.5,283C 459.022,284.303 458.355,285.469 457.5,286.5C 455.81,286.856 454.81,287.856 454.5,289.5C 452.801,289.34 451.134,289.506 449.5,290C 449.001,293.349 448.001,296.516 446.5,299.5C 444.344,301.49 442.344,303.657 440.5,306C 437.096,306.014 434.43,307.347 432.5,310C 430.098,310.814 427.765,310.647 425.5,309.5C 422.801,307.64 419.967,305.974 417,304.5C 415.188,304.493 413.688,305.16 412.5,306.5C 411.784,305.689 410.95,305.022 410,304.5C 406.388,305.716 404.555,308.216 404.5,312C 406.036,317.421 407.203,322.921 408,328.5C 409.333,330.5 410.667,332.5 412,334.5C 413.336,339.51 415.17,344.343 417.5,349C 416.781,351.648 415.114,353.148 412.5,353.5C 413.708,357.868 413.041,362.035 410.5,366C 410.528,367.07 410.861,367.903 411.5,368.5C 413.5,369.5 415.5,370.5 417.5,371.5C 415.902,373.395 414.568,375.562 413.5,378C 410.724,378.066 408.558,379.232 407,381.5C 405.718,384.742 404.218,387.908 402.5,391C 400.893,390.981 399.226,390.815 397.5,390.5C 399.824,392.935 401.491,395.935 402.5,399.5C 403.293,399.069 404.127,398.735 405,398.5C 406.709,399.57 408.209,400.903 409.5,402.5C 411.44,401.905 413.44,401.572 415.5,401.5C 418.748,401.699 421.581,402.699 424,404.5C 424.833,404.167 425.667,403.833 426.5,403.5C 425.889,401.278 425.889,398.945 426.5,396.5C 425.958,393.312 424.958,390.312 423.5,387.5C 427.242,386.119 430.576,383.952 433.5,381C 451.098,369.715 468.431,358.215 485.5,346.5C 486.27,341.639 487.604,336.972 489.5,332.5C 492.572,332.817 495.572,332.484 498.5,331.5C 502.791,327.342 507.125,323.176 511.5,319C 517.292,317.637 522.958,316.137 528.5,314.5C 528.5,315.5 528.5,316.5 528.5,317.5C 535.167,319.167 541.833,320.833 548.5,322.5C 552.298,323.483 556.298,323.817 560.5,323.5C 560.285,325.179 560.952,326.179 562.5,326.5C 563.14,328.332 564.14,328.665 565.5,327.5C 565.121,325.787 564.121,324.787 562.5,324.5C 561.494,323.604 561.494,322.938 562.5,322.5C 563.552,322.649 564.552,322.483 565.5,322C 564.556,319.281 564.223,316.448 564.5,313.5C 552.829,313.667 541.162,313.5 529.5,313C 526.036,307.705 522.036,302.871 517.5,298.5C 516.065,286.776 516.232,275.109 518,263.5C 522.267,256.631 526.267,249.631 530,242.5C 532.381,241.565 534.881,241.232 537.5,241.5C 537.5,240.5 537.5,239.5 537.5,238.5C 534.5,238.5 531.5,238.5 528.5,238.5C 528.853,236.365 528.02,235.032 526,234.5C 522.698,236.139 519.198,236.806 515.5,236.5C 515.306,240.362 513.306,242.695 509.5,243.5C 505.355,241.927 501.355,240.093 497.5,238C 492.213,237.151 486.88,236.651 481.5,236.5C 478.669,233.318 475.336,230.985 471.5,229.5C 470.429,223.029 473.262,219.029 480,217.5C 481.056,213.376 480.222,209.71 477.5,206.5C 478.325,205.614 479.325,205.281 480.5,205.5C 480.904,199.838 480.238,194.338 478.5,189C 479.986,186.411 480.653,183.577 480.5,180.5C 479.5,180.5 478.5,180.5 477.5,180.5C 477.5,178.5 477.5,176.5 477.5,174.5C 476.5,174.5 475.5,174.5 474.5,174.5C 474.433,170.466 473.266,166.8 471,163.5C 466.43,164.936 461.93,166.602 457.5,168.5C 452.681,172.818 448.015,177.318 443.5,182C 442.255,182.791 440.922,183.291 439.5,183.5C 445.605,177.897 451.605,172.064 457.5,166C 463.947,164.861 469.447,162.027 474,157.5C 474.202,155.744 474.702,154.078 475.5,152.5C 477.472,151.695 478.972,150.361 480,148.5C 480.29,144.137 480.79,139.804 481.5,135.5C 481.244,134.311 480.911,133.144 480.5,132C 482.998,126.835 485.498,121.668 488,116.5C 493.067,111.598 498.567,107.264 504.5,103.5C 508.001,97.9144 512.334,93.081 517.5,89C 523.083,86.7058 528.75,84.7058 534.5,83C 542.167,77.3337 550.5,73.0004 559.5,70C 562.997,67.417 566.664,65.0836 570.5,63C 571.071,61.7949 571.738,60.6283 572.5,59.5C 573.824,61.3184 575.657,62.3184 578,62.5C 588.015,59.8275 598.015,57.1608 608,54.5C 610.197,56.8743 612.53,56.8743 615,54.5C 617.21,55.0215 619.377,55.6882 621.5,56.5C 623.998,54.9438 626.665,54.1105 629.5,54C 627.289,55.5822 625.955,57.7489 625.5,60.5C 626.855,64.4402 628.022,68.4402 629,72.5C 632.733,71.9208 636.566,71.7541 640.5,72C 640.043,71.586 639.709,71.086 639.5,70.5C 636.634,69.792 633.8,69.1253 631,68.5C 630.082,65.9369 630.582,63.7702 632.5,62C 630.323,60.8139 629.323,58.9806 629.5,56.5C 630.5,56.5 631.5,56.5 632.5,56.5C 632.5,55.5 632.5,54.5 632.5,53.5C 636.348,53.7603 640.015,53.0936 643.5,51.5C 647.495,53.8311 651.495,56.1644 655.5,58.5C 658.168,54.8258 661.835,52.6592 666.5,52C 680.453,49.0716 694.453,46.4049 708.5,44C 717.656,38.8714 727.489,35.7047 738,34.5C 741.902,34.8665 745.569,35.8665 749,37.5C 755.703,34.9139 761.37,36.5806 766,42.5C 766.296,45.433 765.796,48.2664 764.5,51C 764.955,52.724 765.788,54.224 767,55.5C 768.477,60.6878 769.477,66.0211 770,71.5C 773.49,73.9913 776.657,76.8246 779.5,80C 784.493,81.5034 789.16,83.5034 793.5,86C 796.833,86.6667 800.167,86.6667 803.5,86C 804.653,84.117 806.319,83.2837 808.5,83.5C 808.454,86.0922 807.454,88.2589 805.5,90C 805.769,93.1664 806.102,96.333 806.5,99.5C 807.59,100.727 808.924,101.56 810.5,102C 816.553,103.409 822.553,104.909 828.5,106.5 Z"/></g>
<g><path style="opacity:1" fill="#bdbdbd" d="M 604.5,38.5 C 605.5,38.5 606.5,38.5 607.5,38.5C 608.244,41.9496 606.91,43.6162 603.5,43.5C 603.366,41.7085 603.699,40.0418 604.5,38.5 Z"/></g>
<g><path style="opacity:1" fill="#bbbbbb" d="M 509.5,44.5 C 509.218,45.7777 508.551,46.7777 507.5,47.5C 502.584,48.7006 497.917,50.7006 493.5,53.5C 494.246,54.7362 494.579,56.0695 494.5,57.5C 488.824,57.3339 483.157,57.5006 477.5,58C 473.736,60.365 470.07,62.865 466.5,65.5C 463.487,66.1328 460.654,67.1328 458,68.5C 455.901,67.7135 453.734,67.3801 451.5,67.5C 451.5,68.5 451.5,69.5 451.5,70.5C 446.632,70.3595 442.632,72.1928 439.5,76C 434.404,77.34 431.904,75.5067 432,70.5C 434.112,66.7216 436.612,63.2216 439.5,60C 447.845,56.7302 456.512,54.7302 465.5,54C 478.1,48.4363 491.1,44.2696 504.5,41.5C 506.598,41.9572 508.264,42.9572 509.5,44.5 Z"/></g>
<g><path style="opacity:1" fill="#dcdcdc" d="M 509.5,44.5 C 510.788,46.0348 510.788,47.7015 509.5,49.5C 508.818,48.7573 508.151,48.0906 507.5,47.5C 508.551,46.7777 509.218,45.7777 509.5,44.5 Z"/></g>
<g><path style="opacity:1" fill="#c0c0c0" d="M 426.5,90.5 C 428.924,90.1924 431.257,90.5258 433.5,91.5C 430.786,93.7166 427.786,95.3832 424.5,96.5C 423.412,93.9923 424.078,91.9923 426.5,90.5 Z"/></g>
<g><path style="opacity:1" fill="#bbbbbb" d="M 413.5,87.5 C 415.854,87.838 418.187,88.338 420.5,89C 421.833,90.3333 421.833,91.6667 420.5,93C 413.179,95.5022 405.846,98.3355 398.5,101.5C 397.378,103.044 397.711,104.377 399.5,105.5C 399,106.5 398.5,107.5 398,108.5C 393.875,111.289 390.042,114.456 386.5,118C 382.848,118.499 379.182,118.665 375.5,118.5C 375.5,119.5 375.5,120.5 375.5,121.5C 374.5,121.5 373.5,121.5 372.5,121.5C 372.232,118.881 372.565,116.381 373.5,114C 382.804,108.667 391.47,102.334 399.5,95C 404.282,92.5838 408.948,90.0838 413.5,87.5 Z"/></g>
<g><path style="opacity:1" fill="#dcdcdc" d="M 831.5,109.5 C 830.71,108.391 830.21,107.058 830,105.5C 829.617,106.056 829.117,106.389 828.5,106.5C 828.821,104.952 829.821,104.285 831.5,104.5C 831.5,106.167 831.5,107.833 831.5,109.5 Z"/></g>
<g><path style="opacity:1" fill="#c7c7c7" d="M 447.5,105.5 C 449.604,105.201 451.604,105.534 453.5,106.5C 452.307,108.384 450.641,108.884 448.5,108C 447.748,107.329 447.414,106.496 447.5,105.5 Z"/></g>
<g><path style="opacity:1" fill="#bababa" d="M 361.5,187.5 C 359.173,187.753 357.173,187.086 355.5,185.5C 355.167,185.833 354.833,186.167 354.5,186.5C 355.612,187.265 356.279,188.265 356.5,189.5C 352.935,191.116 349.269,192.449 345.5,193.5C 345.317,189.1 344.651,184.766 343.5,180.5C 344.788,172.919 346.955,165.586 350,158.5C 355.084,149.997 360.417,141.664 366,133.5C 372.505,126.131 376.839,127.131 379,136.5C 380.574,137.984 381.907,139.651 383,141.5C 382.877,148.475 382.544,155.475 382,162.5C 379.376,166.363 377.042,170.363 375,174.5C 371.75,177.339 368.084,179.339 364,180.5C 362.097,182.441 361.264,184.774 361.5,187.5 Z"/></g>
<g><path style="opacity:1" fill="#f2f2f2" d="M 473.5,159.5 C 477.049,160.957 478.216,163.623 477,167.5C 475.985,164.898 474.152,163.065 471.5,162C 472.381,161.292 473.047,160.458 473.5,159.5 Z"/></g>
<g><path style="opacity:1" fill="#fefefe" d="M 562.5,322.5 C 558.083,322.347 553.416,322.347 548.5,322.5C 541.833,320.833 535.167,319.167 528.5,317.5C 528.5,316.5 528.5,315.5 528.5,314.5C 522.958,316.137 517.292,317.637 511.5,319C 507.125,323.176 502.791,327.342 498.5,331.5C 495.572,332.484 492.572,332.817 489.5,332.5C 487.604,336.972 486.27,341.639 485.5,346.5C 468.431,358.215 451.098,369.715 433.5,381C 430.576,383.952 427.242,386.119 423.5,387.5C 424.958,390.312 425.958,393.312 426.5,396.5C 425.889,398.945 425.889,401.278 426.5,403.5C 425.667,403.833 424.833,404.167 424,404.5C 421.581,402.699 418.748,401.699 415.5,401.5C 413.44,401.572 411.44,401.905 409.5,402.5C 408.209,400.903 406.709,399.57 405,398.5C 404.127,398.735 403.293,399.069 402.5,399.5C 401.491,395.935 399.824,392.935 397.5,390.5C 399.226,390.815 400.893,390.981 402.5,391C 404.218,387.908 405.718,384.742 407,381.5C 408.558,379.232 410.724,378.066 413.5,378C 414.568,375.562 415.902,373.395 417.5,371.5C 418.885,370.698 418.718,370.031 417,369.5C 415.234,368.767 413.401,368.433 411.5,368.5C 410.861,367.903 410.528,367.07 410.5,366C 413.041,362.035 413.708,357.868 412.5,353.5C 415.114,353.148 416.781,351.648 417.5,349C 415.17,344.343 413.336,339.51 412,334.5C 410.667,332.5 409.333,330.5 408,328.5C 407.203,322.921 406.036,317.421 404.5,312C 404.555,308.216 406.388,305.716 410,304.5C 410.95,305.022 411.784,305.689 412.5,306.5C 413.688,305.16 415.188,304.493 417,304.5C 419.967,305.974 422.801,307.64 425.5,309.5C 427.765,310.647 430.098,310.814 432.5,310C 434.43,307.347 437.096,306.014 440.5,306C 442.344,303.657 444.344,301.49 446.5,299.5C 448.001,296.516 449.001,293.349 449.5,290C 451.134,289.506 452.801,289.34 454.5,289.5C 455.575,288.438 456.575,288.438 457.5,289.5C 454.679,290.842 454.846,291.508 458,291.5C 459.787,290.437 461.621,289.937 463.5,290C 469.794,292.291 474.961,296.125 479,301.5C 483.642,309.952 488.142,318.452 492.5,327C 489.192,327.673 487.358,329.506 487,332.5C 489.575,331.171 491.741,329.337 493.5,327C 488.682,313.684 481.348,302.018 471.5,292C 467.038,289.255 462.372,287.422 457.5,286.5C 458.355,285.469 459.022,284.303 459.5,283C 457.688,279.096 457.022,274.929 457.5,270.5C 452.514,268.159 447.181,266.826 441.5,266.5C 438.546,267.632 435.712,268.966 433,270.5C 429.943,270.29 427.443,268.957 425.5,266.5C 424.355,265.224 424.355,263.891 425.5,262.5C 423.418,261.634 422.085,260.134 421.5,258C 422.627,251.154 423.46,244.321 424,237.5C 419.832,229.473 415.666,221.473 411.5,213.5C 411.34,211.801 411.506,210.134 412,208.5C 418.989,203.341 425.489,197.674 431.5,191.5C 435.188,189.812 437.855,187.145 439.5,183.5C 440.922,183.291 442.255,182.791 443.5,182C 448.015,177.318 452.681,172.818 457.5,168.5C 461.93,166.602 466.43,164.936 471,163.5C 473.266,166.8 474.433,170.466 474.5,174.5C 475.5,174.5 476.5,174.5 477.5,174.5C 477.5,176.5 477.5,178.5 477.5,180.5C 478.5,180.5 479.5,180.5 480.5,180.5C 480.653,183.577 479.986,186.411 478.5,189C 480.238,194.338 480.904,199.838 480.5,205.5C 479.325,205.281 478.325,205.614 477.5,206.5C 480.222,209.71 481.056,213.376 480,217.5C 473.262,219.029 470.429,223.029 471.5,229.5C 475.336,230.985 478.669,233.318 481.5,236.5C 486.88,236.651 492.213,237.151 497.5,238C 501.355,240.093 505.355,241.927 509.5,243.5C 513.306,242.695 515.306,240.362 515.5,236.5C 519.198,236.806 522.698,236.139 526,234.5C 528.02,235.032 528.853,236.365 528.5,238.5C 531.5,238.5 534.5,238.5 537.5,238.5C 537.5,239.5 537.5,240.5 537.5,241.5C 534.881,241.232 532.381,241.565 530,242.5C 526.267,249.631 522.267,256.631 518,263.5C 516.232,275.109 516.065,286.776 517.5,298.5C 522.036,302.871 526.036,307.705 529.5,313C 541.162,313.5 552.829,313.667 564.5,313.5C 564.223,316.448 564.556,319.281 565.5,322C 564.552,322.483 563.552,322.649 562.5,322.5 Z"/></g>
<g><path style="opacity:1" fill="#e1e1e1" d="M 361.5,187.5 C 360.07,188.537 358.403,189.204 356.5,189.5C 356.279,188.265 355.612,187.265 354.5,186.5C 354.833,186.167 355.167,185.833 355.5,185.5C 357.173,187.086 359.173,187.753 361.5,187.5 Z"/></g>
<g><path style="opacity:1" fill="#d5d5d5" d="M 439.5,183.5 C 437.855,187.145 435.188,189.812 431.5,191.5C 431.369,190.761 431.536,190.094 432,189.5C 434.663,187.666 437.163,185.666 439.5,183.5 Z"/></g>
<g><path style="opacity:1" fill="#bfbfbf" d="M 339.5,192.5 C 341.167,192.5 342.833,192.5 344.5,192.5C 344.67,193.822 344.337,194.989 343.5,196C 339.84,196.995 336.674,198.829 334,201.5C 331.866,199.713 331.033,197.38 331.5,194.5C 334.553,194.889 337.22,194.223 339.5,192.5 Z"/></g>
<g><path style="opacity:1" fill="#d2d2d2" d="M 431.5,191.5 C 425.489,197.674 418.989,203.341 412,208.5C 411.506,210.134 411.34,211.801 411.5,213.5C 410.522,213.189 409.855,212.522 409.5,211.5C 411.167,209.833 410.833,208.833 408.5,208.5C 405.481,209.826 402.481,209.826 399.5,208.5C 400.823,207.392 402.323,207.392 404,208.5C 407.678,207.709 411.178,206.543 414.5,205C 419.773,199.882 425.439,195.382 431.5,191.5 Z"/></g>
<g><path style="opacity:1" fill="#e1e1e1" d="M 362.5,203.5 C 362.657,202.127 362.49,200.793 362,199.5C 361.617,200.056 361.117,200.389 360.5,200.5C 360.821,198.952 361.821,198.285 363.5,198.5C 363.784,200.415 363.451,202.081 362.5,203.5 Z"/></g>
<g><path style="opacity:1" fill="#cccccc" d="M 457.5,286.5 C 462.372,287.422 467.038,289.255 471.5,292C 481.348,302.018 488.682,313.684 493.5,327C 491.741,329.337 489.575,331.171 487,332.5C 487.358,329.506 489.192,327.673 492.5,327C 488.142,318.452 483.642,309.952 479,301.5C 474.961,296.125 469.794,292.291 463.5,290C 461.621,289.937 459.787,290.437 458,291.5C 454.846,291.508 454.679,290.842 457.5,289.5C 456.575,288.438 455.575,288.438 454.5,289.5C 454.81,287.856 455.81,286.856 457.5,286.5 Z"/></g>
<g><path style="opacity:1" fill="#bfbfbf" d="M 543.5,315.5 C 545.199,315.34 546.866,315.506 548.5,316C 549.82,318.215 549.153,319.715 546.5,320.5C 544.244,319.579 543.244,317.912 543.5,315.5 Z"/></g>
<g><path style="opacity:1" fill="#dadada" d="M 562.5,322.5 C 561.494,322.938 561.494,323.604 562.5,324.5C 561.494,324.938 561.494,325.604 562.5,326.5C 560.952,326.179 560.285,325.179 560.5,323.5C 556.298,323.817 552.298,323.483 548.5,322.5C 553.416,322.347 558.083,322.347 562.5,322.5 Z"/></g>
<g><path style="opacity:1" fill="#f8f8f8" d="M 562.5,324.5 C 564.121,324.787 565.121,325.787 565.5,327.5C 564.14,328.665 563.14,328.332 562.5,326.5C 561.494,325.604 561.494,324.938 562.5,324.5 Z"/></g>
<g><path style="opacity:1" fill="#cbcbcb" d="M 485.5,333.5 C 486.124,333.917 486.457,334.584 486.5,335.5C 486.101,338.359 485.267,341.026 484,343.5C 483.54,340.038 484.04,336.704 485.5,333.5 Z"/></g>
<g><path style="opacity:1" fill="#dedede" d="M 566.5,353.5 C 567.097,353.735 567.43,354.235 567.5,355C 566.586,357.621 565.419,360.121 564,362.5C 563.333,361.167 563.333,359.833 564,358.5C 565.372,357.09 566.205,355.423 566.5,353.5 Z"/></g>
<g><path style="opacity:1" fill="#e7e7e7" d="M 314.5,357.5 C 314.369,358.376 314.702,359.043 315.5,359.5C 317.548,358.23 319.548,357.897 321.5,358.5C 318.696,360.101 315.696,361.101 312.5,361.5C 312.989,360.005 313.655,358.671 314.5,357.5 Z"/></g>
<g><path style="opacity:1" fill="#c1c1c1" d="M 420.5,359.5 C 422.044,359.703 423.378,360.37 424.5,361.5C 425.863,360.121 426.863,360.287 427.5,362C 425.383,363.77 423.049,365.27 420.5,366.5C 419.943,364.282 419.943,361.949 420.5,359.5 Z"/></g>
<g><path style="opacity:1" fill="#eaeaea" d="M 548.5,380.5 C 548.611,379.883 548.944,379.383 549.5,379C 548.263,378.768 547.263,378.268 546.5,377.5C 548.308,377.509 549.975,377.009 551.5,376C 554.951,372.26 558.285,368.427 561.5,364.5C 562.614,365.723 562.781,367.056 562,368.5C 557.906,373.102 553.406,377.102 548.5,380.5 Z"/></g>
<g><path style="opacity:1" fill="#d7d7d7" d="M 411.5,368.5 C 413.401,368.433 415.234,368.767 417,369.5C 418.718,370.031 418.885,370.698 417.5,371.5C 415.5,370.5 413.5,369.5 411.5,368.5 Z"/></g>
<g><path style="opacity:1" fill="#f9f9f9" d="M 546.5,377.5 C 547.263,378.268 548.263,378.768 549.5,379C 548.944,379.383 548.611,379.883 548.5,380.5C 543.227,384.478 537.56,387.978 531.5,391C 528.204,392.511 524.871,393.677 521.5,394.5C 521.414,396.677 520.747,398.677 519.5,400.5C 516.697,403.399 513.697,406.066 510.5,408.5C 510.784,406.585 510.451,404.919 509.5,403.5C 506.653,400.365 506.986,397.532 510.5,395C 514.219,394.612 517.886,393.945 521.5,393C 526.319,385.846 532.652,380.513 540.5,377C 542.598,376.322 544.598,376.489 546.5,377.5 Z"/></g>
<g><path style="opacity:1" fill="#f9f9f9" d="M 436.5,403.5 C 440.633,404.898 444.966,405.731 449.5,406C 457.61,410.736 465.277,416.402 472.5,423C 467.693,423.925 463.526,422.758 460,419.5C 459.506,417.866 459.34,416.199 459.5,414.5C 457.063,414.244 454.729,413.577 452.5,412.5C 451.614,411.675 451.281,410.675 451.5,409.5C 445.05,410.128 438.716,410.962 432.5,412C 430.824,410.823 429.491,409.323 428.5,407.5C 431.02,405.87 433.687,404.537 436.5,403.5 Z"/></g>
<g><path style="opacity:1" fill="#d8d8d8" d="M 509.5,403.5 C 510.451,404.919 510.784,406.585 510.5,408.5C 510.59,411.152 509.924,413.485 508.5,415.5C 509.021,411.519 509.354,407.519 509.5,403.5 Z"/></g>
<g><path style="opacity:1" fill="#ececec" d="M 508.5,415.5 C 508.397,418.636 507.397,421.302 505.5,423.5C 505.345,420.284 506.345,417.617 508.5,415.5 Z"/></g>
<g><path style="opacity:1" fill="#ececec" d="M 505.5,423.5 C 505.389,424.117 505.056,424.617 504.5,425C 502.5,425.667 500.5,425.667 498.5,425C 500.677,423.798 503.011,423.298 505.5,423.5 Z"/></g>
<g><path style="opacity:1" fill="#e9e9e9" d="M 491.5,426.5 C 492.873,426.343 494.207,426.51 495.5,427C 492.57,428.318 489.57,428.985 486.5,429C 488.315,428.243 489.981,427.41 491.5,426.5 Z"/></g>
<g><path style="opacity:1" fill="#ececec" d="M 478.5,430.5 C 479.497,429.287 480.497,429.454 481.5,431C 480.423,431.47 479.423,431.303 478.5,430.5 Z"/></g>
<g><path style="opacity:1" fill="#e1e1e1" d="M 631.5,553.5 C 632.765,554.514 633.431,556.014 633.5,558C 633.492,559.707 633.158,561.207 632.5,562.5C 632.736,559.391 632.403,556.391 631.5,553.5 Z"/></g>
<g><path style="opacity:1" fill="#fbfbfb" d="M 188.5,594.5 C 188.574,592.589 189.574,591.422 191.5,591C 187.109,590.947 183.109,591.447 179.5,592.5C 178.469,591.645 177.303,590.978 176,590.5C 172.167,591.733 168.333,591.733 164.5,590.5C 165.948,589.646 167.281,588.646 168.5,587.5C 170.276,589.447 172.276,589.78 174.5,588.5C 172.436,586.475 171.102,584.142 170.5,581.5C 171.11,580.609 171.443,579.609 171.5,578.5C 174.942,581.463 177.275,580.796 178.5,576.5C 182.363,575.43 186.197,574.096 190,572.5C 192.77,573.348 195.603,573.681 198.5,573.5C 199.406,576.482 200.74,579.315 202.5,582C 200.319,587.461 201.486,591.961 206,595.5C 206.822,598.117 207.322,600.784 207.5,603.5C 215.164,603.411 222.331,605.077 229,608.5C 229.684,609.784 229.517,610.951 228.5,612C 223.98,611.763 219.98,612.929 216.5,615.5C 213.166,614.169 210.166,612.335 207.5,610C 205.19,609.503 202.857,609.337 200.5,609.5C 200.607,605.714 199.107,602.714 196,600.5C 195.727,595.727 193.227,593.727 188.5,594.5 Z"/></g>
<g><path style="opacity:1" fill="#c0c0c0" d="M 183.5,576.5 C 187.763,576.618 190.263,578.618 191,582.5C 186.75,581.805 182.584,581.805 178.5,582.5C 180.537,580.798 182.203,578.798 183.5,576.5 Z"/></g>
<g><path style="opacity:1" fill="#d3d3d3" d="M 252.5,586.5 C 255.601,587.549 258.601,588.882 261.5,590.5C 261.167,590.833 260.833,591.167 260.5,591.5C 257.388,589.816 254.054,589.15 250.5,589.5C 251.551,588.778 252.218,587.778 252.5,586.5 Z"/></g>
<g><path style="opacity:1" fill="#bababa" d="M 206.5,563.5 C 208.032,564.677 209.532,566.011 211,567.5C 211.483,568.448 211.649,569.448 211.5,570.5C 216.366,572.49 221.366,574.324 226.5,576C 230.569,579.063 234.902,581.73 239.5,584C 243.721,588.221 247.887,592.387 252,596.5C 252.483,597.448 252.649,598.448 252.5,599.5C 256.705,599.271 259.705,600.938 261.5,604.5C 266.675,605.761 271.841,605.761 277,604.5C 278.011,605.056 278.844,605.722 279.5,606.5C 279.715,608.179 279.048,609.179 277.5,609.5C 275.833,609.5 274.167,609.5 272.5,609.5C 272.683,611.936 272.016,614.103 270.5,616C 264.172,618.658 257.672,620.491 251,621.5C 249.5,621.333 248,621.167 246.5,621C 243.833,619.009 241.5,616.676 239.5,614C 236.937,612.921 234.271,612.421 231.5,612.5C 231.5,614.5 231.5,616.5 231.5,618.5C 234.255,618.963 235.922,620.63 236.5,623.5C 234.534,623.534 232.534,623.534 230.5,623.5C 228.716,623.107 227.05,622.441 225.5,621.5C 225.5,620.5 225.5,619.5 225.5,618.5C 228.694,618.824 229.694,617.658 228.5,615C 224.432,614.122 220.766,614.955 217.5,617.5C 218.485,619.098 218.651,620.765 218,622.5C 215.978,624.522 213.978,626.522 212,628.5C 210.467,629.695 208.967,629.695 207.5,628.5C 202.233,632.689 196.233,634.189 189.5,633C 188.167,631.667 186.833,630.333 185.5,629C 181.68,628.765 178.013,627.932 174.5,626.5C 174.833,625.833 175.167,625.167 175.5,624.5C 174.051,621.268 172.884,617.935 172,614.5C 169.2,612.505 166.033,611.505 162.5,611.5C 162.917,606.932 160.917,605.432 156.5,607C 157.833,607.333 159.167,607.667 160.5,608C 156.726,608.384 153.726,610.051 151.5,613C 148.429,613.147 145.596,613.98 143,615.5C 142.36,617.265 142.527,618.932 143.5,620.5C 142.167,620.5 141.5,619.833 141.5,618.5C 140.952,615.916 139.285,614.916 136.5,615.5C 135.45,612.142 134.45,608.809 133.5,605.5C 133.672,600.317 136.006,596.484 140.5,594C 144.305,593.466 147.971,592.466 151.5,591C 154.894,590.248 158.227,590.415 161.5,591.5C 162.768,589.696 163.435,587.696 163.5,585.5C 166.837,585.813 169.171,584.48 170.5,581.5C 171.102,584.142 172.436,586.475 174.5,588.5C 172.276,589.78 170.276,589.447 168.5,587.5C 167.281,588.646 165.948,589.646 164.5,590.5C 168.333,591.733 172.167,591.733 176,590.5C 177.303,590.978 178.469,591.645 179.5,592.5C 179.5,593.5 179.5,594.5 179.5,595.5C 182.545,595.492 185.545,595.159 188.5,594.5C 193.227,593.727 195.727,595.727 196,600.5C 199.107,602.714 200.607,605.714 200.5,609.5C 202.857,609.337 205.19,609.503 207.5,610C 210.166,612.335 213.166,614.169 216.5,615.5C 219.98,612.929 223.98,611.763 228.5,612C 229.517,610.951 229.684,609.784 229,608.5C 222.331,605.077 215.164,603.411 207.5,603.5C 207.322,600.784 206.822,598.117 206,595.5C 201.486,591.961 200.319,587.461 202.5,582C 200.74,579.315 199.406,576.482 198.5,573.5C 195.603,573.681 192.77,573.348 190,572.5C 186.197,574.096 182.363,575.43 178.5,576.5C 177.275,580.796 174.942,581.463 171.5,578.5C 170.989,575.972 170.322,573.472 169.5,571C 169.439,569.289 170.106,567.956 171.5,567C 180.914,563.418 190.414,560.251 200,557.5C 201.366,560.501 203.533,562.501 206.5,563.5 Z"/></g>
<g><path style="opacity:1" fill="#fafafa" d="M 252.5,586.5 C 252.218,587.778 251.551,588.778 250.5,589.5C 249.226,590.189 249.226,591.023 250.5,592C 253.662,593.748 256.662,595.748 259.5,598C 264.119,598.694 268.619,598.194 273,596.5C 280.442,601.3 288.609,603.967 297.5,604.5C 299.725,606.186 302.225,607.186 305,607.5C 312.307,605.453 319.473,603.12 326.5,600.5C 327.711,601.274 327.711,602.107 326.5,603C 317.735,608.906 307.901,612.073 297,612.5C 293.767,612.3 290.933,611.133 288.5,609C 285.961,608.204 283.628,608.371 281.5,609.5C 280.833,608.5 280.167,607.5 279.5,606.5C 278.844,605.722 278.011,605.056 277,604.5C 271.841,605.761 266.675,605.761 261.5,604.5C 259.705,600.938 256.705,599.271 252.5,599.5C 252.649,598.448 252.483,597.448 252,596.5C 247.887,592.387 243.721,588.221 239.5,584C 234.902,581.73 230.569,579.063 226.5,576C 221.366,574.324 216.366,572.49 211.5,570.5C 211.649,569.448 211.483,568.448 211,567.5C 209.532,566.011 208.032,564.677 206.5,563.5C 207.29,562.599 208.29,561.932 209.5,561.5C 209.56,562.043 209.893,562.376 210.5,562.5C 211.328,561.585 212.328,560.919 213.5,560.5C 216.325,563.665 219.659,566.165 223.5,568C 225.811,567.845 228.144,567.845 230.5,568C 233.317,572.267 237.317,574.6 242.5,575C 244.399,577.966 245.899,581.133 247,584.5C 248.584,585.861 250.418,586.528 252.5,586.5 Z"/></g>
<g><path style="opacity:1" fill="#c7c7c7" d="M 188.5,594.5 C 185.545,595.159 182.545,595.492 179.5,595.5C 179.5,594.5 179.5,593.5 179.5,592.5C 183.109,591.447 187.109,590.947 191.5,591C 189.574,591.422 188.574,592.589 188.5,594.5 Z"/></g>
<g><path style="opacity:1" fill="#bfbfbf" d="M 196.5,586.5 C 197.924,590.681 199.924,594.681 202.5,598.5C 200.019,598.677 198.186,597.677 197,595.5C 196.869,592.629 195.703,590.295 193.5,588.5C 194.602,587.824 195.602,587.158 196.5,586.5 Z"/></g>
<g><path style="opacity:1" fill="#fcfcfc" d="M 225.5,621.5 C 223.883,620.962 222.216,620.629 220.5,620.5C 220.201,622.973 219.201,625.14 217.5,627C 219.888,628.9 221.221,631.4 221.5,634.5C 225.226,634.177 228.893,634.511 232.5,635.5C 228.965,636.022 225.632,637.022 222.5,638.5C 218.952,634.82 214.618,633.32 209.5,634C 205.245,636.912 200.578,638.912 195.5,640C 194.424,641.726 194.257,643.559 195,645.5C 197.543,646.207 199.709,647.54 201.5,649.5C 202.797,652.631 204.964,654.964 208,656.5C 207.937,659.767 209.437,661.934 212.5,663C 218.842,663.475 225.176,663.975 231.5,664.5C 231.201,666.604 231.534,668.604 232.5,670.5C 235.079,671.706 237.579,673.039 240,674.5C 240.323,679.866 240.823,685.199 241.5,690.5C 235.825,688.704 230.492,689.371 225.5,692.5C 222.383,691.019 219.383,689.352 216.5,687.5C 214.493,684.735 212.326,682.068 210,679.5C 209.699,676.02 208.865,672.687 207.5,669.5C 204.736,668.239 202.403,666.405 200.5,664C 196.24,663.191 192.24,661.691 188.5,659.5C 186.929,660.309 185.262,660.643 183.5,660.5C 183.5,658.5 183.5,656.5 183.5,654.5C 179.36,654.689 175.36,655.356 171.5,656.5C 171.369,655.761 171.536,655.094 172,654.5C 173.302,653.915 174.469,653.249 175.5,652.5C 176.762,646.451 175.095,641.284 170.5,637C 166.212,635.993 161.879,635.493 157.5,635.5C 152.591,636.935 147.591,638.269 142.5,639.5C 140.974,639.006 139.641,638.339 138.5,637.5C 137.791,636.596 136.791,636.263 135.5,636.5C 135.5,634.833 135.5,633.167 135.5,631.5C 138.01,630.217 140.677,629.217 143.5,628.5C 143.214,626.723 142.547,625.056 141.5,623.5C 141.942,622.261 142.609,621.261 143.5,620.5C 142.527,618.932 142.36,617.265 143,615.5C 145.596,613.98 148.429,613.147 151.5,613C 153.726,610.051 156.726,608.384 160.5,608C 159.167,607.667 157.833,607.333 156.5,607C 160.917,605.432 162.917,606.932 162.5,611.5C 166.033,611.505 169.2,612.505 172,614.5C 172.884,617.935 174.051,621.268 175.5,624.5C 175.167,625.167 174.833,625.833 174.5,626.5C 178.013,627.932 181.68,628.765 185.5,629C 186.833,630.333 188.167,631.667 189.5,633C 196.233,634.189 202.233,632.689 207.5,628.5C 208.967,629.695 210.467,629.695 212,628.5C 213.978,626.522 215.978,624.522 218,622.5C 218.651,620.765 218.485,619.098 217.5,617.5C 220.766,614.955 224.432,614.122 228.5,615C 229.694,617.658 228.694,618.824 225.5,618.5C 225.5,619.5 225.5,620.5 225.5,621.5 Z"/></g>
<g><path style="opacity:1" fill="#fafafa" d="M 277.5,609.5 C 277.5,610.167 277.5,610.833 277.5,611.5C 275.549,618.118 271.215,622.451 264.5,624.5C 258.935,623.549 253.935,624.882 249.5,628.5C 245.577,627.402 241.577,626.735 237.5,626.5C 237.737,625.209 237.404,624.209 236.5,623.5C 235.922,620.63 234.255,618.963 231.5,618.5C 231.5,616.5 231.5,614.5 231.5,612.5C 234.271,612.421 236.937,612.921 239.5,614C 241.5,616.676 243.833,619.009 246.5,621C 248,621.167 249.5,621.333 251,621.5C 257.672,620.491 264.172,618.658 270.5,616C 272.016,614.103 272.683,611.936 272.5,609.5C 274.167,609.5 275.833,609.5 277.5,609.5 Z"/></g>
<g><path style="opacity:1" fill="#dedede" d="M 279.5,606.5 C 280.167,607.5 280.833,608.5 281.5,609.5C 280.486,610.674 279.153,611.34 277.5,611.5C 277.5,610.833 277.5,610.167 277.5,609.5C 279.048,609.179 279.715,608.179 279.5,606.5 Z"/></g>
<g><path style="opacity:1" fill="#c4c4c4" d="M 141.5,618.5 C 141.5,619.833 142.167,620.5 143.5,620.5C 142.609,621.261 141.942,622.261 141.5,623.5C 142.547,625.056 143.214,626.723 143.5,628.5C 140.677,629.217 138.01,630.217 135.5,631.5C 135.5,633.167 135.5,634.833 135.5,636.5C 136.791,636.263 137.791,636.596 138.5,637.5C 137.167,637.5 135.833,637.5 134.5,637.5C 134.768,635.901 134.434,634.568 133.5,633.5C 133.52,631.857 132.853,630.524 131.5,629.5C 133.528,627.162 135.528,624.829 137.5,622.5C 138.086,622.709 138.586,623.043 139,623.5C 139.757,621.685 140.59,620.019 141.5,618.5 Z"/></g>
<g><path style="opacity:1" fill="#d8d8d8" d="M 230.5,623.5 C 232.534,623.534 234.534,623.534 236.5,623.5C 237.404,624.209 237.737,625.209 237.5,626.5C 234.423,626.821 232.09,625.821 230.5,623.5 Z"/></g>
<g><path style="opacity:1" fill="#f5f5f5" d="M 123.5,641.5 C 126.344,645.269 129.677,648.602 133.5,651.5C 132.635,652.583 131.635,652.749 130.5,652C 128.359,650.692 126.359,649.192 124.5,647.5C 123.534,645.604 123.201,643.604 123.5,641.5 Z"/></g>
<g><path style="opacity:1" fill="#f0f0f0" d="M 148.5,652.5 C 151.407,652.575 154.073,653.409 156.5,655C 153.095,655.968 150.429,655.135 148.5,652.5 Z"/></g>
<g><path style="opacity:1" fill="#d3d3d3" d="M 175.5,652.5 C 174.469,653.249 173.302,653.915 172,654.5C 171.536,655.094 171.369,655.761 171.5,656.5C 169.554,656.807 167.887,656.807 166.5,656.5C 168.555,655.813 170.221,654.646 171.5,653C 172.793,652.51 174.127,652.343 175.5,652.5 Z"/></g>
<g><path style="opacity:1" fill="#ececec" d="M 142.5,653.5 C 143.978,653.238 145.311,653.571 146.5,654.5C 145.675,655.386 144.675,655.719 143.5,655.5C 142.958,659.248 140.958,661.915 137.5,663.5C 133.993,661.467 132.493,658.467 133,654.5C 133.853,656.125 134.853,656.458 136,655.5C 136.492,656.549 136.326,657.549 135.5,658.5C 135.919,659.672 136.585,660.672 137.5,661.5C 140.012,659.33 141.679,656.663 142.5,653.5 Z"/></g>
<g><path style="opacity:1" fill="#eaeaea" d="M 131.5,686.5 C 129.167,686.5 126.833,686.5 124.5,686.5C 125.952,685.698 127.618,685.198 129.5,685C 129.043,684.586 128.709,684.086 128.5,683.5C 129.463,681.51 130.796,681.177 132.5,682.5C 131.754,683.736 131.421,685.07 131.5,686.5 Z"/></g>
<g><path style="opacity:1" fill="#b9b9b9" d="M 147.5,717.5 C 147.238,718.978 147.571,720.311 148.5,721.5C 149.386,720.675 149.719,719.675 149.5,718.5C 151.167,718.5 152.833,718.5 154.5,718.5C 159.161,720.753 164.161,722.086 169.5,722.5C 169.5,721.5 169.5,720.5 169.5,719.5C 174.425,716.545 179.758,714.378 185.5,713C 187.155,710.493 187.989,707.659 188,704.5C 189.013,702.154 190.679,700.487 193,699.5C 196.218,700.678 199.385,702.012 202.5,703.5C 203.515,706.544 204.515,709.544 205.5,712.5C 206.312,713.993 207.645,714.66 209.5,714.5C 210.726,714.48 211.726,714.147 212.5,713.5C 213.993,714.445 215.493,715.445 217,716.5C 221.58,713.387 225.08,714.387 227.5,719.5C 227.833,719.167 228.167,718.833 228.5,718.5C 227.05,717.15 226.383,715.484 226.5,713.5C 230.161,713.206 233.494,712.372 236.5,711C 239.92,713.33 242.253,716.496 243.5,720.5C 239.142,725.69 234.976,731.023 231,736.5C 222.801,744.17 213.634,750.17 203.5,754.5C 201.772,754.41 200.106,754.077 198.5,753.5C 194.35,755.83 190.684,758.663 187.5,762C 184.892,763.852 182.559,763.686 180.5,761.5C 179.571,762.689 179.238,764.022 179.5,765.5C 176.859,766.263 174.192,766.43 171.5,766C 171.306,764.097 171.306,762.263 171.5,760.5C 170.354,761.145 169.354,761.978 168.5,763C 163.167,763.667 157.833,763.667 152.5,763C 151.63,757.941 151.297,752.941 151.5,748C 148.689,747.933 146.523,746.766 145,744.5C 140.764,743.767 136.597,742.767 132.5,741.5C 130.168,740.101 128.001,738.434 126,736.5C 124.699,737.893 123.199,738.393 121.5,738C 118.253,735.879 114.919,734.046 111.5,732.5C 113.024,737.309 111.691,738.309 107.5,735.5C 105.493,736.171 103.66,737.171 102,738.5C 100.7,737.548 99.533,737.548 98.5,738.5C 99.4451,742.448 100.112,746.448 100.5,750.5C 93.8558,751.443 87.1892,751.609 80.5,751C 78.8934,749.951 78.2267,748.451 78.5,746.5C 74.651,745.655 71.4844,743.655 69,740.5C 68.6466,739.328 68.8132,738.162 69.5,737C 66.7037,735.447 66.037,733.28 67.5,730.5C 66.6171,729.452 65.9504,728.285 65.5,727C 71.116,721.495 71.7826,715.328 67.5,708.5C 70.3897,706.557 73.3897,704.89 76.5,703.5C 83.0383,702.826 89.3716,701.326 95.5,699C 102.063,697.168 107.397,698.834 111.5,704C 118.919,707.271 126.586,709.771 134.5,711.5C 137.518,716.339 141.851,718.339 147.5,717.5 Z"/></g>
<g><path style="opacity:1" fill="#dadada" d="M 205.5,712.5 C 207.764,713.219 210.097,713.552 212.5,713.5C 211.726,714.147 210.726,714.48 209.5,714.5C 207.645,714.66 206.312,713.993 205.5,712.5 Z"/></g>
<g><path style="opacity:1" fill="#d9d9d9" d="M 147.5,717.5 C 150.059,717.198 152.393,717.532 154.5,718.5C 152.833,718.5 151.167,718.5 149.5,718.5C 149.719,719.675 149.386,720.675 148.5,721.5C 147.571,720.311 147.238,718.978 147.5,717.5 Z"/></g>
<g><path style="opacity:1" fill="#d4d4d4" d="M 423.5,721.5 C 425.423,725.029 426.089,729.029 425.5,733.5C 424.775,729.605 424.109,725.605 423.5,721.5 Z"/></g>
<g><path style="opacity:1" fill="#dddddd" d="M 563.5,803.5 C 562.5,803.5 561.5,803.5 560.5,803.5C 560.5,804.833 560.5,806.167 560.5,807.5C 559.549,806.081 559.216,804.415 559.5,802.5C 561.099,802.232 562.432,802.566 563.5,803.5 Z"/></g>
</svg>
